<mxfile host="app.diagrams.net" agent="Mozilla/5.0 (Windows NT 10.0; Win64; x64) AppleWebKit/537.36 (KHTML, like Gecko) Chrome/131.0.0.0 Safari/537.36" version="24.9.3">
  <diagram name="Page-1" id="wnFLdRmqYCi8qRwHGo1O">
    <mxGraphModel dx="367" dy="197" grid="1" gridSize="10" guides="1" tooltips="1" connect="1" arrows="1" fold="1" page="1" pageScale="1" pageWidth="2339" pageHeight="3300" math="0" shadow="0">
      <root>
        <mxCell id="0" />
        <mxCell id="1" parent="0" />
        <mxCell id="6a3Cd45cJa1MGzQEdIav-1" value="user" style="rounded=0;whiteSpace=wrap;html=1;" parent="1" vertex="1">
          <mxGeometry x="1035.5" y="480" width="90" height="30" as="geometry" />
        </mxCell>
        <mxCell id="6a3Cd45cJa1MGzQEdIav-2" value="credential" style="rounded=0;whiteSpace=wrap;html=1;" parent="1" vertex="1">
          <mxGeometry x="1035.5" y="820" width="90" height="30" as="geometry" />
        </mxCell>
        <mxCell id="6a3Cd45cJa1MGzQEdIav-3" value="insurance" style="rounded=0;whiteSpace=wrap;html=1;" parent="1" vertex="1">
          <mxGeometry x="1250.5" y="675" width="90" height="30" as="geometry" />
        </mxCell>
        <mxCell id="6a3Cd45cJa1MGzQEdIav-4" value="subscription" style="rounded=0;whiteSpace=wrap;html=1;" parent="1" vertex="1">
          <mxGeometry x="750" y="675" width="90" height="30" as="geometry" />
        </mxCell>
        <mxCell id="6a3Cd45cJa1MGzQEdIav-6" value="auth_data" style="rounded=0;whiteSpace=wrap;html=1;" parent="1" vertex="1">
          <mxGeometry x="1036" y="1050" width="90" height="30" as="geometry" />
        </mxCell>
        <mxCell id="6a3Cd45cJa1MGzQEdIav-11" value="appointment" style="rounded=0;whiteSpace=wrap;html=1;" parent="1" vertex="1">
          <mxGeometry x="1365" y="480" width="90" height="30" as="geometry" />
        </mxCell>
        <mxCell id="6a3Cd45cJa1MGzQEdIav-13" value="payment" style="rounded=0;whiteSpace=wrap;html=1;" parent="1" vertex="1">
          <mxGeometry x="1390" y="925" width="90" height="30" as="geometry" />
        </mxCell>
        <mxCell id="6a3Cd45cJa1MGzQEdIav-20" value="name" style="ellipse;whiteSpace=wrap;html=1;" parent="1" vertex="1">
          <mxGeometry x="888" y="420" width="61" height="30" as="geometry" />
        </mxCell>
        <mxCell id="6a3Cd45cJa1MGzQEdIav-21" value="age" style="ellipse;whiteSpace=wrap;html=1;" parent="1" vertex="1">
          <mxGeometry x="953.5" y="420" width="61" height="30" as="geometry" />
        </mxCell>
        <mxCell id="6a3Cd45cJa1MGzQEdIav-22" value="gender" style="ellipse;whiteSpace=wrap;html=1;" parent="1" vertex="1">
          <mxGeometry x="1019" y="420" width="61" height="30" as="geometry" />
        </mxCell>
        <mxCell id="6a3Cd45cJa1MGzQEdIav-23" value="address" style="ellipse;whiteSpace=wrap;html=1;" parent="1" vertex="1">
          <mxGeometry x="1099" y="410" width="61" height="30" as="geometry" />
        </mxCell>
        <mxCell id="6a3Cd45cJa1MGzQEdIav-24" value="" style="endArrow=none;html=1;rounded=0;entryX=0.5;entryY=1;entryDx=0;entryDy=0;exitX=0;exitY=0;exitDx=0;exitDy=0;" parent="1" source="6a3Cd45cJa1MGzQEdIav-1" target="6a3Cd45cJa1MGzQEdIav-20" edge="1">
          <mxGeometry width="50" height="50" relative="1" as="geometry">
            <mxPoint x="959" y="480" as="sourcePoint" />
            <mxPoint x="1009" y="430" as="targetPoint" />
          </mxGeometry>
        </mxCell>
        <mxCell id="6a3Cd45cJa1MGzQEdIav-25" value="" style="endArrow=none;html=1;rounded=0;entryX=0.5;entryY=1;entryDx=0;entryDy=0;exitX=0.25;exitY=0;exitDx=0;exitDy=0;" parent="1" source="6a3Cd45cJa1MGzQEdIav-1" target="6a3Cd45cJa1MGzQEdIav-21" edge="1">
          <mxGeometry width="50" height="50" relative="1" as="geometry">
            <mxPoint x="1059" y="490" as="sourcePoint" />
            <mxPoint x="970" y="410" as="targetPoint" />
          </mxGeometry>
        </mxCell>
        <mxCell id="6a3Cd45cJa1MGzQEdIav-26" value="" style="endArrow=none;html=1;rounded=0;entryX=0.5;entryY=1;entryDx=0;entryDy=0;exitX=0.5;exitY=0;exitDx=0;exitDy=0;" parent="1" source="6a3Cd45cJa1MGzQEdIav-1" target="6a3Cd45cJa1MGzQEdIav-22" edge="1">
          <mxGeometry width="50" height="50" relative="1" as="geometry">
            <mxPoint x="1082" y="490" as="sourcePoint" />
            <mxPoint x="1040" y="410" as="targetPoint" />
          </mxGeometry>
        </mxCell>
        <mxCell id="6a3Cd45cJa1MGzQEdIav-27" value="" style="endArrow=none;html=1;rounded=0;entryX=0.5;entryY=1;entryDx=0;entryDy=0;exitX=0.75;exitY=0;exitDx=0;exitDy=0;" parent="1" source="6a3Cd45cJa1MGzQEdIav-1" target="6a3Cd45cJa1MGzQEdIav-23" edge="1">
          <mxGeometry width="50" height="50" relative="1" as="geometry">
            <mxPoint x="1104" y="490" as="sourcePoint" />
            <mxPoint x="1110" y="410" as="targetPoint" />
          </mxGeometry>
        </mxCell>
        <mxCell id="6a3Cd45cJa1MGzQEdIav-28" value="email" style="ellipse;whiteSpace=wrap;html=1;" parent="1" vertex="1">
          <mxGeometry x="1160" y="390" width="61" height="30" as="geometry" />
        </mxCell>
        <mxCell id="6a3Cd45cJa1MGzQEdIav-29" value="" style="endArrow=none;html=1;rounded=0;entryX=0.5;entryY=1;entryDx=0;entryDy=0;exitX=1;exitY=0;exitDx=0;exitDy=0;" parent="1" source="6a3Cd45cJa1MGzQEdIav-1" target="6a3Cd45cJa1MGzQEdIav-28" edge="1">
          <mxGeometry width="50" height="50" relative="1" as="geometry">
            <mxPoint x="1127" y="490" as="sourcePoint" />
            <mxPoint x="1180" y="410" as="targetPoint" />
          </mxGeometry>
        </mxCell>
        <mxCell id="6a3Cd45cJa1MGzQEdIav-30" value="rolebaed&lt;div&gt;id&lt;/div&gt;" style="ellipse;whiteSpace=wrap;html=1;" parent="1" vertex="1">
          <mxGeometry x="839" y="450" width="70" height="40" as="geometry" />
        </mxCell>
        <mxCell id="6a3Cd45cJa1MGzQEdIav-31" value="" style="endArrow=none;html=1;rounded=0;entryX=1;entryY=0.5;entryDx=0;entryDy=0;" parent="1" target="6a3Cd45cJa1MGzQEdIav-30" edge="1">
          <mxGeometry width="50" height="50" relative="1" as="geometry">
            <mxPoint x="1049" y="490" as="sourcePoint" />
            <mxPoint x="1010" y="480" as="targetPoint" />
          </mxGeometry>
        </mxCell>
        <mxCell id="6a3Cd45cJa1MGzQEdIav-32" value="subscription" style="ellipse;whiteSpace=wrap;html=1;" parent="1" vertex="1">
          <mxGeometry x="899" y="480" width="70" height="40" as="geometry" />
        </mxCell>
        <mxCell id="6a3Cd45cJa1MGzQEdIav-34" value="" style="endArrow=none;html=1;rounded=0;entryX=1;entryY=0.5;entryDx=0;entryDy=0;exitX=0;exitY=0.75;exitDx=0;exitDy=0;" parent="1" source="6a3Cd45cJa1MGzQEdIav-1" target="6a3Cd45cJa1MGzQEdIav-32" edge="1">
          <mxGeometry width="50" height="50" relative="1" as="geometry">
            <mxPoint x="1059" y="500" as="sourcePoint" />
            <mxPoint x="999" y="500" as="targetPoint" />
          </mxGeometry>
        </mxCell>
        <mxCell id="6a3Cd45cJa1MGzQEdIav-35" value="emergency&lt;div&gt;contact&lt;/div&gt;" style="ellipse;whiteSpace=wrap;html=1;" parent="1" vertex="1">
          <mxGeometry x="910" y="535" width="70" height="40" as="geometry" />
        </mxCell>
        <mxCell id="6a3Cd45cJa1MGzQEdIav-36" value="" style="endArrow=none;html=1;rounded=0;entryX=1;entryY=0.5;entryDx=0;entryDy=0;exitX=0;exitY=1;exitDx=0;exitDy=0;" parent="1" source="6a3Cd45cJa1MGzQEdIav-1" target="6a3Cd45cJa1MGzQEdIav-35" edge="1">
          <mxGeometry width="50" height="50" relative="1" as="geometry">
            <mxPoint x="1050" y="603" as="sourcePoint" />
            <mxPoint x="980" y="640" as="targetPoint" />
          </mxGeometry>
        </mxCell>
        <mxCell id="6a3Cd45cJa1MGzQEdIav-37" value="general_purp&lt;div&gt;id&lt;/div&gt;" style="ellipse;whiteSpace=wrap;html=1;" parent="1" vertex="1">
          <mxGeometry x="1040.5" y="360" width="81" height="40" as="geometry" />
        </mxCell>
        <mxCell id="6a3Cd45cJa1MGzQEdIav-38" value="" style="endArrow=none;html=1;rounded=0;entryX=0.5;entryY=1;entryDx=0;entryDy=0;exitX=0.75;exitY=0;exitDx=0;exitDy=0;" parent="1" source="6a3Cd45cJa1MGzQEdIav-1" target="6a3Cd45cJa1MGzQEdIav-37" edge="1">
          <mxGeometry width="50" height="50" relative="1" as="geometry">
            <mxPoint x="1127" y="490" as="sourcePoint" />
            <mxPoint x="1188" y="380" as="targetPoint" />
          </mxGeometry>
        </mxCell>
        <mxCell id="Si1KO3qxatz9HyINxb4g-1" value="HAS&lt;div&gt;A&lt;/div&gt;" style="rhombus;whiteSpace=wrap;html=1;" parent="1" vertex="1">
          <mxGeometry x="1040.5" y="650" width="80" height="80" as="geometry" />
        </mxCell>
        <mxCell id="Si1KO3qxatz9HyINxb4g-3" value="" style="endArrow=none;html=1;rounded=0;entryX=0.5;entryY=0;entryDx=0;entryDy=0;exitX=0.5;exitY=1;exitDx=0;exitDy=0;" parent="1" source="6a3Cd45cJa1MGzQEdIav-1" target="Si1KO3qxatz9HyINxb4g-1" edge="1">
          <mxGeometry width="50" height="50" relative="1" as="geometry">
            <mxPoint x="1050" y="610" as="sourcePoint" />
            <mxPoint x="1020" y="640" as="targetPoint" />
          </mxGeometry>
        </mxCell>
        <mxCell id="Si1KO3qxatz9HyINxb4g-5" value="" style="endArrow=none;html=1;rounded=0;exitX=0.5;exitY=1;exitDx=0;exitDy=0;entryX=0.5;entryY=0;entryDx=0;entryDy=0;" parent="1" source="Si1KO3qxatz9HyINxb4g-1" target="6a3Cd45cJa1MGzQEdIav-2" edge="1">
          <mxGeometry width="50" height="50" relative="1" as="geometry">
            <mxPoint x="1091" y="610" as="sourcePoint" />
            <mxPoint x="1091" y="740" as="targetPoint" />
          </mxGeometry>
        </mxCell>
        <mxCell id="Si1KO3qxatz9HyINxb4g-6" value="Record_id" style="ellipse;whiteSpace=wrap;html=1;" parent="1" vertex="1">
          <mxGeometry x="960" y="750" width="70" height="35" as="geometry" />
        </mxCell>
        <mxCell id="Si1KO3qxatz9HyINxb4g-7" value="user_gen_id" style="ellipse;whiteSpace=wrap;html=1;" parent="1" vertex="1">
          <mxGeometry x="890" y="782.5" width="70" height="35" as="geometry" />
        </mxCell>
        <mxCell id="Si1KO3qxatz9HyINxb4g-8" value="rolebased_id" style="ellipse;whiteSpace=wrap;html=1;" parent="1" vertex="1">
          <mxGeometry x="840" y="817.5" width="80" height="35" as="geometry" />
        </mxCell>
        <mxCell id="Si1KO3qxatz9HyINxb4g-9" value="insurance_id" style="ellipse;whiteSpace=wrap;html=1;" parent="1" vertex="1">
          <mxGeometry x="900" y="850" width="80" height="35" as="geometry" />
        </mxCell>
        <mxCell id="Si1KO3qxatz9HyINxb4g-10" value="" style="endArrow=none;html=1;rounded=0;exitX=0;exitY=0;exitDx=0;exitDy=0;entryX=0.5;entryY=1;entryDx=0;entryDy=0;" parent="1" source="6a3Cd45cJa1MGzQEdIav-2" target="Si1KO3qxatz9HyINxb4g-6" edge="1">
          <mxGeometry width="50" height="50" relative="1" as="geometry">
            <mxPoint x="1000" y="780" as="sourcePoint" />
            <mxPoint x="1000" y="750" as="targetPoint" />
          </mxGeometry>
        </mxCell>
        <mxCell id="Si1KO3qxatz9HyINxb4g-11" value="" style="endArrow=none;html=1;rounded=0;entryX=1;entryY=0.5;entryDx=0;entryDy=0;exitX=0;exitY=0.25;exitDx=0;exitDy=0;" parent="1" source="6a3Cd45cJa1MGzQEdIav-2" target="Si1KO3qxatz9HyINxb4g-7" edge="1">
          <mxGeometry width="50" height="50" relative="1" as="geometry">
            <mxPoint x="1030" y="800" as="sourcePoint" />
            <mxPoint x="970" y="753" as="targetPoint" />
          </mxGeometry>
        </mxCell>
        <mxCell id="Si1KO3qxatz9HyINxb4g-12" value="" style="endArrow=none;html=1;rounded=0;entryX=1;entryY=0.5;entryDx=0;entryDy=0;exitX=0;exitY=0.5;exitDx=0;exitDy=0;" parent="1" source="6a3Cd45cJa1MGzQEdIav-2" target="Si1KO3qxatz9HyINxb4g-8" edge="1">
          <mxGeometry width="50" height="50" relative="1" as="geometry">
            <mxPoint x="1046" y="808" as="sourcePoint" />
            <mxPoint x="970" y="798" as="targetPoint" />
          </mxGeometry>
        </mxCell>
        <mxCell id="Si1KO3qxatz9HyINxb4g-13" value="" style="endArrow=none;html=1;rounded=0;entryX=1;entryY=0.5;entryDx=0;entryDy=0;exitX=0;exitY=0.75;exitDx=0;exitDy=0;" parent="1" source="6a3Cd45cJa1MGzQEdIav-2" target="Si1KO3qxatz9HyINxb4g-9" edge="1">
          <mxGeometry width="50" height="50" relative="1" as="geometry">
            <mxPoint x="1046" y="815" as="sourcePoint" />
            <mxPoint x="980" y="848" as="targetPoint" />
          </mxGeometry>
        </mxCell>
        <mxCell id="Si1KO3qxatz9HyINxb4g-14" value="password" style="ellipse;whiteSpace=wrap;html=1;" parent="1" vertex="1">
          <mxGeometry x="1150" y="782.5" width="70" height="35" as="geometry" />
        </mxCell>
        <mxCell id="Si1KO3qxatz9HyINxb4g-16" value="user_name" style="ellipse;whiteSpace=wrap;html=1;" parent="1" vertex="1">
          <mxGeometry x="1204" y="820" width="70" height="35" as="geometry" />
        </mxCell>
        <mxCell id="Si1KO3qxatz9HyINxb4g-17" value="" style="endArrow=none;html=1;rounded=0;exitX=0;exitY=0.5;exitDx=0;exitDy=0;entryX=1;entryY=0.5;entryDx=0;entryDy=0;" parent="1" source="Si1KO3qxatz9HyINxb4g-16" target="6a3Cd45cJa1MGzQEdIav-2" edge="1">
          <mxGeometry width="50" height="50" relative="1" as="geometry">
            <mxPoint x="1190" y="801" as="sourcePoint" />
            <mxPoint x="1140" y="850" as="targetPoint" />
          </mxGeometry>
        </mxCell>
        <mxCell id="Si1KO3qxatz9HyINxb4g-18" value="user_name" style="ellipse;whiteSpace=wrap;html=1;" parent="1" vertex="1">
          <mxGeometry x="1153" y="855" width="70" height="35" as="geometry" />
        </mxCell>
        <mxCell id="Si1KO3qxatz9HyINxb4g-19" value="" style="endArrow=none;html=1;rounded=0;exitX=0;exitY=0.5;exitDx=0;exitDy=0;entryX=1;entryY=1;entryDx=0;entryDy=0;" parent="1" source="Si1KO3qxatz9HyINxb4g-18" target="6a3Cd45cJa1MGzQEdIav-2" edge="1">
          <mxGeometry width="50" height="50" relative="1" as="geometry">
            <mxPoint x="1184" y="833" as="sourcePoint" />
            <mxPoint x="1120" y="850" as="targetPoint" />
          </mxGeometry>
        </mxCell>
        <mxCell id="Si1KO3qxatz9HyINxb4g-20" value="" style="endArrow=none;html=1;rounded=0;exitX=0;exitY=0.5;exitDx=0;exitDy=0;entryX=1;entryY=0.5;entryDx=0;entryDy=0;" parent="1" source="6a3Cd45cJa1MGzQEdIav-3" target="Si1KO3qxatz9HyINxb4g-1" edge="1">
          <mxGeometry width="50" height="50" relative="1" as="geometry">
            <mxPoint x="1171" y="781" as="sourcePoint" />
            <mxPoint x="1136" y="800" as="targetPoint" />
          </mxGeometry>
        </mxCell>
        <mxCell id="Si1KO3qxatz9HyINxb4g-21" value="" style="endArrow=none;html=1;rounded=0;exitX=0;exitY=0.5;exitDx=0;exitDy=0;entryX=1;entryY=0;entryDx=0;entryDy=0;" parent="1" source="Si1KO3qxatz9HyINxb4g-14" target="6a3Cd45cJa1MGzQEdIav-2" edge="1">
          <mxGeometry width="50" height="50" relative="1" as="geometry">
            <mxPoint x="1198" y="848" as="sourcePoint" />
            <mxPoint x="1140" y="835" as="targetPoint" />
          </mxGeometry>
        </mxCell>
        <mxCell id="Si1KO3qxatz9HyINxb4g-22" value="Record_id" style="ellipse;whiteSpace=wrap;html=1;" parent="1" vertex="1">
          <mxGeometry x="1110" y="640" width="70" height="35" as="geometry" />
        </mxCell>
        <mxCell id="Si1KO3qxatz9HyINxb4g-23" value="user_gen_id" style="ellipse;whiteSpace=wrap;html=1;" parent="1" vertex="1">
          <mxGeometry x="1140" y="600" width="70" height="35" as="geometry" />
        </mxCell>
        <mxCell id="Si1KO3qxatz9HyINxb4g-24" value="insurance_id" style="ellipse;whiteSpace=wrap;html=1;" parent="1" vertex="1">
          <mxGeometry x="1199" y="572.5" width="80" height="35" as="geometry" />
        </mxCell>
        <mxCell id="Si1KO3qxatz9HyINxb4g-25" value="" style="endArrow=none;html=1;rounded=0;exitX=0;exitY=0.25;exitDx=0;exitDy=0;entryX=0.5;entryY=1;entryDx=0;entryDy=0;" parent="1" source="6a3Cd45cJa1MGzQEdIav-3" target="Si1KO3qxatz9HyINxb4g-22" edge="1">
          <mxGeometry width="50" height="50" relative="1" as="geometry">
            <mxPoint x="1210" y="700" as="sourcePoint" />
            <mxPoint x="1131" y="700" as="targetPoint" />
          </mxGeometry>
        </mxCell>
        <mxCell id="Si1KO3qxatz9HyINxb4g-26" value="" style="endArrow=none;html=1;rounded=0;exitX=0;exitY=0;exitDx=0;exitDy=0;entryX=0.5;entryY=1;entryDx=0;entryDy=0;" parent="1" source="6a3Cd45cJa1MGzQEdIav-3" target="Si1KO3qxatz9HyINxb4g-23" edge="1">
          <mxGeometry width="50" height="50" relative="1" as="geometry">
            <mxPoint x="1210" y="685" as="sourcePoint" />
            <mxPoint x="1175" y="658" as="targetPoint" />
          </mxGeometry>
        </mxCell>
        <mxCell id="Si1KO3qxatz9HyINxb4g-27" value="" style="endArrow=none;html=1;rounded=0;exitX=0.25;exitY=0;exitDx=0;exitDy=0;entryX=0.5;entryY=1;entryDx=0;entryDy=0;" parent="1" source="6a3Cd45cJa1MGzQEdIav-3" target="Si1KO3qxatz9HyINxb4g-24" edge="1">
          <mxGeometry width="50" height="50" relative="1" as="geometry">
            <mxPoint x="1233" y="685" as="sourcePoint" />
            <mxPoint x="1225" y="625" as="targetPoint" />
          </mxGeometry>
        </mxCell>
        <mxCell id="Si1KO3qxatz9HyINxb4g-28" value="user_name" style="ellipse;whiteSpace=wrap;html=1;" parent="1" vertex="1">
          <mxGeometry x="1120.5" y="715" width="70" height="35" as="geometry" />
        </mxCell>
        <mxCell id="Si1KO3qxatz9HyINxb4g-29" value="" style="endArrow=none;html=1;rounded=0;exitX=1;exitY=0.5;exitDx=0;exitDy=0;entryX=0;entryY=1;entryDx=0;entryDy=0;" parent="1" source="Si1KO3qxatz9HyINxb4g-28" target="6a3Cd45cJa1MGzQEdIav-3" edge="1">
          <mxGeometry width="50" height="50" relative="1" as="geometry">
            <mxPoint x="1255" y="685" as="sourcePoint" />
            <mxPoint x="1289" y="595" as="targetPoint" />
          </mxGeometry>
        </mxCell>
        <mxCell id="Si1KO3qxatz9HyINxb4g-30" value="prov_name" style="ellipse;whiteSpace=wrap;html=1;" parent="1" vertex="1">
          <mxGeometry x="1190.5" y="735" width="70" height="35" as="geometry" />
        </mxCell>
        <mxCell id="Si1KO3qxatz9HyINxb4g-31" value="prov_id" style="ellipse;whiteSpace=wrap;html=1;" parent="1" vertex="1">
          <mxGeometry x="1260" y="770" width="70" height="35" as="geometry" />
        </mxCell>
        <mxCell id="Si1KO3qxatz9HyINxb4g-32" value="" style="endArrow=none;html=1;rounded=0;exitX=0.5;exitY=0;exitDx=0;exitDy=0;entryX=0.25;entryY=1;entryDx=0;entryDy=0;" parent="1" source="Si1KO3qxatz9HyINxb4g-30" target="6a3Cd45cJa1MGzQEdIav-3" edge="1">
          <mxGeometry width="50" height="50" relative="1" as="geometry">
            <mxPoint x="1201" y="743" as="sourcePoint" />
            <mxPoint x="1210" y="715" as="targetPoint" />
          </mxGeometry>
        </mxCell>
        <mxCell id="Si1KO3qxatz9HyINxb4g-33" value="" style="endArrow=none;html=1;rounded=0;exitX=0;exitY=0;exitDx=0;exitDy=0;entryX=0.5;entryY=1;entryDx=0;entryDy=0;" parent="1" source="Si1KO3qxatz9HyINxb4g-31" target="6a3Cd45cJa1MGzQEdIav-3" edge="1">
          <mxGeometry width="50" height="50" relative="1" as="geometry">
            <mxPoint x="1236" y="745" as="sourcePoint" />
            <mxPoint x="1233" y="715" as="targetPoint" />
          </mxGeometry>
        </mxCell>
        <mxCell id="Si1KO3qxatz9HyINxb4g-34" value="coverage" style="ellipse;whiteSpace=wrap;html=1;" parent="1" vertex="1">
          <mxGeometry x="1260.5" y="600" width="80" height="35" as="geometry" />
        </mxCell>
        <mxCell id="Si1KO3qxatz9HyINxb4g-35" value="" style="endArrow=none;html=1;rounded=0;exitX=0.5;exitY=0;exitDx=0;exitDy=0;entryX=0.5;entryY=1;entryDx=0;entryDy=0;" parent="1" source="6a3Cd45cJa1MGzQEdIav-3" target="Si1KO3qxatz9HyINxb4g-34" edge="1">
          <mxGeometry width="50" height="50" relative="1" as="geometry">
            <mxPoint x="1255" y="685" as="sourcePoint" />
            <mxPoint x="1289" y="595" as="targetPoint" />
          </mxGeometry>
        </mxCell>
        <mxCell id="Si1KO3qxatz9HyINxb4g-36" value="prov_contact" style="ellipse;whiteSpace=wrap;html=1;" parent="1" vertex="1">
          <mxGeometry x="1340" y="630" width="80" height="30" as="geometry" />
        </mxCell>
        <mxCell id="Si1KO3qxatz9HyINxb4g-37" value="" style="endArrow=none;html=1;rounded=0;exitX=0.75;exitY=0;exitDx=0;exitDy=0;entryX=0;entryY=1;entryDx=0;entryDy=0;" parent="1" source="6a3Cd45cJa1MGzQEdIav-3" target="Si1KO3qxatz9HyINxb4g-36" edge="1">
          <mxGeometry width="50" height="50" relative="1" as="geometry">
            <mxPoint x="1278" y="685" as="sourcePoint" />
            <mxPoint x="1331" y="625" as="targetPoint" />
          </mxGeometry>
        </mxCell>
        <mxCell id="Si1KO3qxatz9HyINxb4g-38" value="prov_email" style="ellipse;whiteSpace=wrap;html=1;" parent="1" vertex="1">
          <mxGeometry x="1340.5" y="770" width="70" height="35" as="geometry" />
        </mxCell>
        <mxCell id="Si1KO3qxatz9HyINxb4g-39" value="" style="endArrow=none;html=1;rounded=0;exitX=0.75;exitY=1;exitDx=0;exitDy=0;entryX=0;entryY=0.5;entryDx=0;entryDy=0;" parent="1" source="6a3Cd45cJa1MGzQEdIav-3" target="Si1KO3qxatz9HyINxb4g-38" edge="1">
          <mxGeometry width="50" height="50" relative="1" as="geometry">
            <mxPoint x="1300" y="685" as="sourcePoint" />
            <mxPoint x="1340" y="653" as="targetPoint" />
          </mxGeometry>
        </mxCell>
        <mxCell id="Si1KO3qxatz9HyINxb4g-40" value="issued_date" style="ellipse;whiteSpace=wrap;html=1;" parent="1" vertex="1">
          <mxGeometry x="1405" y="650" width="80" height="35" as="geometry" />
        </mxCell>
        <mxCell id="Si1KO3qxatz9HyINxb4g-41" value="exp_date" style="ellipse;whiteSpace=wrap;html=1;" parent="1" vertex="1">
          <mxGeometry x="1455" y="680" width="80" height="35" as="geometry" />
        </mxCell>
        <mxCell id="Si1KO3qxatz9HyINxb4g-42" value="" style="endArrow=none;html=1;rounded=0;exitX=1;exitY=0;exitDx=0;exitDy=0;entryX=0;entryY=0.5;entryDx=0;entryDy=0;" parent="1" source="6a3Cd45cJa1MGzQEdIav-3" target="Si1KO3qxatz9HyINxb4g-40" edge="1">
          <mxGeometry width="50" height="50" relative="1" as="geometry">
            <mxPoint x="1328" y="685" as="sourcePoint" />
            <mxPoint x="1340" y="653" as="targetPoint" />
          </mxGeometry>
        </mxCell>
        <mxCell id="Si1KO3qxatz9HyINxb4g-43" value="" style="endArrow=none;html=1;rounded=0;exitX=1;exitY=0.25;exitDx=0;exitDy=0;entryX=0;entryY=0.5;entryDx=0;entryDy=0;" parent="1" source="6a3Cd45cJa1MGzQEdIav-3" target="Si1KO3qxatz9HyINxb4g-41" edge="1">
          <mxGeometry width="50" height="50" relative="1" as="geometry">
            <mxPoint x="1351" y="685" as="sourcePoint" />
            <mxPoint x="1410" y="678" as="targetPoint" />
          </mxGeometry>
        </mxCell>
        <mxCell id="Si1KO3qxatz9HyINxb4g-44" value="validity" style="ellipse;whiteSpace=wrap;html=1;" parent="1" vertex="1">
          <mxGeometry x="1465" y="725" width="70" height="35" as="geometry" />
        </mxCell>
        <mxCell id="Si1KO3qxatz9HyINxb4g-45" value="" style="endArrow=none;html=1;rounded=0;exitX=1;exitY=0.5;exitDx=0;exitDy=0;entryX=0;entryY=0.5;entryDx=0;entryDy=0;" parent="1" source="6a3Cd45cJa1MGzQEdIav-3" target="Si1KO3qxatz9HyINxb4g-44" edge="1">
          <mxGeometry width="50" height="50" relative="1" as="geometry">
            <mxPoint x="1351" y="693" as="sourcePoint" />
            <mxPoint x="1465" y="708" as="targetPoint" />
          </mxGeometry>
        </mxCell>
        <mxCell id="Si1KO3qxatz9HyINxb4g-46" value="claims" style="ellipse;whiteSpace=wrap;html=1;" parent="1" vertex="1">
          <mxGeometry x="1350" y="730" width="70" height="35" as="geometry" />
        </mxCell>
        <mxCell id="Si1KO3qxatz9HyINxb4g-47" value="" style="endArrow=none;html=1;rounded=0;exitX=1;exitY=1;exitDx=0;exitDy=0;entryX=0.5;entryY=0;entryDx=0;entryDy=0;" parent="1" source="6a3Cd45cJa1MGzQEdIav-3" target="Si1KO3qxatz9HyINxb4g-46" edge="1">
          <mxGeometry width="50" height="50" relative="1" as="geometry">
            <mxPoint x="1351" y="700" as="sourcePoint" />
            <mxPoint x="1475" y="753" as="targetPoint" />
          </mxGeometry>
        </mxCell>
        <mxCell id="Si1KO3qxatz9HyINxb4g-48" value="" style="endArrow=none;html=1;rounded=0;exitX=1;exitY=0.5;exitDx=0;exitDy=0;entryX=0;entryY=0.5;entryDx=0;entryDy=0;" parent="1" source="6a3Cd45cJa1MGzQEdIav-4" target="Si1KO3qxatz9HyINxb4g-1" edge="1">
          <mxGeometry width="50" height="50" relative="1" as="geometry">
            <mxPoint x="1091" y="740" as="sourcePoint" />
            <mxPoint x="1040" y="700" as="targetPoint" />
          </mxGeometry>
        </mxCell>
        <mxCell id="Si1KO3qxatz9HyINxb4g-49" value="Record_id" style="ellipse;whiteSpace=wrap;html=1;" parent="1" vertex="1">
          <mxGeometry x="860" y="630" width="70" height="35" as="geometry" />
        </mxCell>
        <mxCell id="Si1KO3qxatz9HyINxb4g-50" value="" style="endArrow=none;html=1;rounded=0;entryX=1;entryY=0;entryDx=0;entryDy=0;exitX=0;exitY=1;exitDx=0;exitDy=0;" parent="1" source="Si1KO3qxatz9HyINxb4g-49" target="6a3Cd45cJa1MGzQEdIav-4" edge="1">
          <mxGeometry width="50" height="50" relative="1" as="geometry">
            <mxPoint x="1046" y="610" as="sourcePoint" />
            <mxPoint x="1020" y="640" as="targetPoint" />
          </mxGeometry>
        </mxCell>
        <mxCell id="Si1KO3qxatz9HyINxb4g-51" value="subs_id" style="ellipse;whiteSpace=wrap;html=1;" parent="1" vertex="1">
          <mxGeometry x="780" y="605" width="70" height="35" as="geometry" />
        </mxCell>
        <mxCell id="Si1KO3qxatz9HyINxb4g-52" value="" style="endArrow=none;html=1;rounded=0;entryX=0.75;entryY=0;entryDx=0;entryDy=0;exitX=0.5;exitY=1;exitDx=0;exitDy=0;" parent="1" source="Si1KO3qxatz9HyINxb4g-51" target="6a3Cd45cJa1MGzQEdIav-4" edge="1">
          <mxGeometry width="50" height="50" relative="1" as="geometry">
            <mxPoint x="880" y="670" as="sourcePoint" />
            <mxPoint x="850" y="685" as="targetPoint" />
          </mxGeometry>
        </mxCell>
        <mxCell id="Si1KO3qxatz9HyINxb4g-53" value="user_gen_id" style="ellipse;whiteSpace=wrap;html=1;" parent="1" vertex="1">
          <mxGeometry x="700" y="575" width="70" height="35" as="geometry" />
        </mxCell>
        <mxCell id="Si1KO3qxatz9HyINxb4g-54" value="" style="endArrow=none;html=1;rounded=0;entryX=0.5;entryY=0;entryDx=0;entryDy=0;exitX=0.571;exitY=1;exitDx=0;exitDy=0;exitPerimeter=0;" parent="1" source="Si1KO3qxatz9HyINxb4g-53" target="6a3Cd45cJa1MGzQEdIav-4" edge="1">
          <mxGeometry width="50" height="50" relative="1" as="geometry">
            <mxPoint x="825" y="650" as="sourcePoint" />
            <mxPoint x="828" y="685" as="targetPoint" />
          </mxGeometry>
        </mxCell>
        <mxCell id="Si1KO3qxatz9HyINxb4g-55" value="subs_plan" style="ellipse;whiteSpace=wrap;html=1;" parent="1" vertex="1">
          <mxGeometry x="660" y="615" width="70" height="35" as="geometry" />
        </mxCell>
        <mxCell id="Si1KO3qxatz9HyINxb4g-56" value="" style="endArrow=none;html=1;rounded=0;entryX=0.25;entryY=0;entryDx=0;entryDy=0;exitX=1;exitY=0.5;exitDx=0;exitDy=0;" parent="1" source="Si1KO3qxatz9HyINxb4g-55" target="6a3Cd45cJa1MGzQEdIav-4" edge="1">
          <mxGeometry width="50" height="50" relative="1" as="geometry">
            <mxPoint x="750" y="620" as="sourcePoint" />
            <mxPoint x="805" y="685" as="targetPoint" />
          </mxGeometry>
        </mxCell>
        <mxCell id="Si1KO3qxatz9HyINxb4g-57" value="subs_type" style="ellipse;whiteSpace=wrap;html=1;" parent="1" vertex="1">
          <mxGeometry x="630" y="660" width="70" height="35" as="geometry" />
        </mxCell>
        <mxCell id="Si1KO3qxatz9HyINxb4g-58" value="" style="endArrow=none;html=1;rounded=0;exitX=1;exitY=0.5;exitDx=0;exitDy=0;entryX=0;entryY=0.25;entryDx=0;entryDy=0;" parent="1" source="Si1KO3qxatz9HyINxb4g-57" target="6a3Cd45cJa1MGzQEdIav-4" edge="1">
          <mxGeometry width="50" height="50" relative="1" as="geometry">
            <mxPoint x="730" y="663" as="sourcePoint" />
            <mxPoint x="750" y="690" as="targetPoint" />
          </mxGeometry>
        </mxCell>
        <mxCell id="Si1KO3qxatz9HyINxb4g-59" value="validity" style="ellipse;whiteSpace=wrap;html=1;" parent="1" vertex="1">
          <mxGeometry x="640" y="705" width="70" height="35" as="geometry" />
        </mxCell>
        <mxCell id="Si1KO3qxatz9HyINxb4g-61" value="" style="endArrow=none;html=1;rounded=0;exitX=1;exitY=0.5;exitDx=0;exitDy=0;entryX=0;entryY=0.75;entryDx=0;entryDy=0;" parent="1" source="Si1KO3qxatz9HyINxb4g-59" target="6a3Cd45cJa1MGzQEdIav-4" edge="1">
          <mxGeometry width="50" height="50" relative="1" as="geometry">
            <mxPoint x="720" y="703" as="sourcePoint" />
            <mxPoint x="750" y="700" as="targetPoint" />
          </mxGeometry>
        </mxCell>
        <mxCell id="Si1KO3qxatz9HyINxb4g-62" value="validity" style="ellipse;whiteSpace=wrap;html=1;" parent="1" vertex="1">
          <mxGeometry x="809" y="730" width="70" height="35" as="geometry" />
        </mxCell>
        <mxCell id="Si1KO3qxatz9HyINxb4g-63" value="" style="endArrow=none;html=1;rounded=0;entryX=0.5;entryY=0;entryDx=0;entryDy=0;exitX=1;exitY=1;exitDx=0;exitDy=0;" parent="1" source="6a3Cd45cJa1MGzQEdIav-4" target="Si1KO3qxatz9HyINxb4g-62" edge="1">
          <mxGeometry width="50" height="50" relative="1" as="geometry">
            <mxPoint x="825" y="650" as="sourcePoint" />
            <mxPoint x="828" y="685" as="targetPoint" />
          </mxGeometry>
        </mxCell>
        <mxCell id="Si1KO3qxatz9HyINxb4g-64" value="coupon" style="ellipse;whiteSpace=wrap;html=1;direction=west;" parent="1" vertex="1">
          <mxGeometry x="700" y="750" width="70" height="35" as="geometry" />
        </mxCell>
        <mxCell id="Si1KO3qxatz9HyINxb4g-65" value="" style="endArrow=none;html=1;rounded=0;exitX=0.571;exitY=1;exitDx=0;exitDy=0;entryX=0.25;entryY=1;entryDx=0;entryDy=0;exitPerimeter=0;" parent="1" source="Si1KO3qxatz9HyINxb4g-64" target="6a3Cd45cJa1MGzQEdIav-4" edge="1">
          <mxGeometry width="50" height="50" relative="1" as="geometry">
            <mxPoint x="720" y="733" as="sourcePoint" />
            <mxPoint x="760" y="708" as="targetPoint" />
          </mxGeometry>
        </mxCell>
        <mxCell id="Si1KO3qxatz9HyINxb4g-66" value="exp_date" style="ellipse;whiteSpace=wrap;html=1;direction=west;" parent="1" vertex="1">
          <mxGeometry x="770" y="770" width="70" height="35" as="geometry" />
        </mxCell>
        <mxCell id="Si1KO3qxatz9HyINxb4g-67" value="" style="endArrow=none;html=1;rounded=0;exitX=0.5;exitY=1;exitDx=0;exitDy=0;entryX=0.5;entryY=1;entryDx=0;entryDy=0;" parent="1" source="Si1KO3qxatz9HyINxb4g-66" target="6a3Cd45cJa1MGzQEdIav-4" edge="1">
          <mxGeometry width="50" height="50" relative="1" as="geometry">
            <mxPoint x="740" y="760" as="sourcePoint" />
            <mxPoint x="783" y="715" as="targetPoint" />
          </mxGeometry>
        </mxCell>
        <mxCell id="Si1KO3qxatz9HyINxb4g-68" value="Books" style="rhombus;whiteSpace=wrap;html=1;" parent="1" vertex="1">
          <mxGeometry x="1210" y="455" width="80" height="80" as="geometry" />
        </mxCell>
        <mxCell id="Si1KO3qxatz9HyINxb4g-69" value="" style="endArrow=none;html=1;rounded=0;entryX=0;entryY=0.5;entryDx=0;entryDy=0;exitX=1;exitY=0.5;exitDx=0;exitDy=0;" parent="1" source="6a3Cd45cJa1MGzQEdIav-1" target="Si1KO3qxatz9HyINxb4g-68" edge="1">
          <mxGeometry width="50" height="50" relative="1" as="geometry">
            <mxPoint x="1136" y="490" as="sourcePoint" />
            <mxPoint x="1201" y="430" as="targetPoint" />
          </mxGeometry>
        </mxCell>
        <mxCell id="Si1KO3qxatz9HyINxb4g-70" value="" style="endArrow=none;html=1;rounded=0;entryX=0;entryY=0.5;entryDx=0;entryDy=0;exitX=1;exitY=0.5;exitDx=0;exitDy=0;" parent="1" source="Si1KO3qxatz9HyINxb4g-68" target="6a3Cd45cJa1MGzQEdIav-11" edge="1">
          <mxGeometry width="50" height="50" relative="1" as="geometry">
            <mxPoint x="1136" y="505" as="sourcePoint" />
            <mxPoint x="1220" y="505" as="targetPoint" />
          </mxGeometry>
        </mxCell>
        <mxCell id="Si1KO3qxatz9HyINxb4g-71" value="email" style="ellipse;whiteSpace=wrap;html=1;" parent="1" vertex="1">
          <mxGeometry x="1279" y="450" width="61" height="30" as="geometry" />
        </mxCell>
        <mxCell id="Si1KO3qxatz9HyINxb4g-72" value="" style="endArrow=none;html=1;rounded=0;entryX=0;entryY=0.25;entryDx=0;entryDy=0;exitX=1;exitY=0.5;exitDx=0;exitDy=0;" parent="1" source="Si1KO3qxatz9HyINxb4g-71" target="6a3Cd45cJa1MGzQEdIav-11" edge="1">
          <mxGeometry width="50" height="50" relative="1" as="geometry">
            <mxPoint x="1365" y="435" as="sourcePoint" />
            <mxPoint x="1430" y="375" as="targetPoint" />
          </mxGeometry>
        </mxCell>
        <mxCell id="Si1KO3qxatz9HyINxb4g-73" value="user_gen_id" style="ellipse;whiteSpace=wrap;html=1;" parent="1" vertex="1">
          <mxGeometry x="1300" y="410" width="70" height="30" as="geometry" />
        </mxCell>
        <mxCell id="Si1KO3qxatz9HyINxb4g-74" value="" style="endArrow=none;html=1;rounded=0;entryX=0;entryY=0;entryDx=0;entryDy=0;exitX=0.5;exitY=1;exitDx=0;exitDy=0;" parent="1" source="Si1KO3qxatz9HyINxb4g-73" target="6a3Cd45cJa1MGzQEdIav-11" edge="1">
          <mxGeometry width="50" height="50" relative="1" as="geometry">
            <mxPoint x="1350" y="475" as="sourcePoint" />
            <mxPoint x="1375" y="498" as="targetPoint" />
          </mxGeometry>
        </mxCell>
        <mxCell id="Si1KO3qxatz9HyINxb4g-75" value="user_name" style="ellipse;whiteSpace=wrap;html=1;" parent="1" vertex="1">
          <mxGeometry x="1375" y="410" width="70" height="30" as="geometry" />
        </mxCell>
        <mxCell id="Si1KO3qxatz9HyINxb4g-76" value="user_age" style="ellipse;whiteSpace=wrap;html=1;" parent="1" vertex="1">
          <mxGeometry x="1450" y="410" width="70" height="30" as="geometry" />
        </mxCell>
        <mxCell id="Si1KO3qxatz9HyINxb4g-77" value="" style="endArrow=none;html=1;rounded=0;entryX=0.5;entryY=0;entryDx=0;entryDy=0;exitX=0.5;exitY=1;exitDx=0;exitDy=0;" parent="1" source="Si1KO3qxatz9HyINxb4g-75" target="6a3Cd45cJa1MGzQEdIav-11" edge="1">
          <mxGeometry width="50" height="50" relative="1" as="geometry">
            <mxPoint x="1345" y="450" as="sourcePoint" />
            <mxPoint x="1375" y="490" as="targetPoint" />
          </mxGeometry>
        </mxCell>
        <mxCell id="Si1KO3qxatz9HyINxb4g-78" value="" style="endArrow=none;html=1;rounded=0;entryX=0.75;entryY=0;entryDx=0;entryDy=0;exitX=0.5;exitY=1;exitDx=0;exitDy=0;" parent="1" source="Si1KO3qxatz9HyINxb4g-76" target="6a3Cd45cJa1MGzQEdIav-11" edge="1">
          <mxGeometry width="50" height="50" relative="1" as="geometry">
            <mxPoint x="1420" y="450" as="sourcePoint" />
            <mxPoint x="1420" y="490" as="targetPoint" />
          </mxGeometry>
        </mxCell>
        <mxCell id="TTBG8ATHhAR-_xfXLPtl-1" value="contains" style="rhombus;whiteSpace=wrap;html=1;" vertex="1" parent="1">
          <mxGeometry x="1040.5" y="900" width="80" height="80" as="geometry" />
        </mxCell>
        <mxCell id="TTBG8ATHhAR-_xfXLPtl-2" value="" style="endArrow=none;html=1;rounded=0;entryX=0.5;entryY=0;entryDx=0;entryDy=0;exitX=0.5;exitY=1;exitDx=0;exitDy=0;" edge="1" parent="1" source="6a3Cd45cJa1MGzQEdIav-2" target="TTBG8ATHhAR-_xfXLPtl-1">
          <mxGeometry width="50" height="50" relative="1" as="geometry">
            <mxPoint x="1046" y="853" as="sourcePoint" />
            <mxPoint x="990" y="878" as="targetPoint" />
          </mxGeometry>
        </mxCell>
        <mxCell id="TTBG8ATHhAR-_xfXLPtl-3" value="" style="endArrow=none;html=1;rounded=0;entryX=0.5;entryY=0;entryDx=0;entryDy=0;exitX=0.5;exitY=1;exitDx=0;exitDy=0;" edge="1" parent="1" source="TTBG8ATHhAR-_xfXLPtl-1" target="6a3Cd45cJa1MGzQEdIav-6">
          <mxGeometry width="50" height="50" relative="1" as="geometry">
            <mxPoint x="1091" y="860" as="sourcePoint" />
            <mxPoint x="1091" y="910" as="targetPoint" />
          </mxGeometry>
        </mxCell>
        <mxCell id="TTBG8ATHhAR-_xfXLPtl-4" value="Record_id" style="ellipse;whiteSpace=wrap;html=1;" vertex="1" parent="1">
          <mxGeometry x="976" y="1110" width="70" height="35" as="geometry" />
        </mxCell>
        <mxCell id="TTBG8ATHhAR-_xfXLPtl-5" value="user_gen_id" style="ellipse;whiteSpace=wrap;html=1;" vertex="1" parent="1">
          <mxGeometry x="1116" y="1110" width="70" height="35" as="geometry" />
        </mxCell>
        <mxCell id="TTBG8ATHhAR-_xfXLPtl-6" value="password" style="ellipse;whiteSpace=wrap;html=1;" vertex="1" parent="1">
          <mxGeometry x="920" y="1075" width="70" height="35" as="geometry" />
        </mxCell>
        <mxCell id="TTBG8ATHhAR-_xfXLPtl-7" value="prov_email" style="ellipse;whiteSpace=wrap;html=1;" vertex="1" parent="1">
          <mxGeometry x="1046" y="1130" width="70" height="35" as="geometry" />
        </mxCell>
        <mxCell id="TTBG8ATHhAR-_xfXLPtl-8" value="mobile_num" style="ellipse;whiteSpace=wrap;html=1;" vertex="1" parent="1">
          <mxGeometry x="1170" y="1080" width="80" height="35" as="geometry" />
        </mxCell>
        <mxCell id="TTBG8ATHhAR-_xfXLPtl-9" value="adhar_num" style="ellipse;whiteSpace=wrap;html=1;" vertex="1" parent="1">
          <mxGeometry x="920" y="1035" width="70" height="35" as="geometry" />
        </mxCell>
        <mxCell id="TTBG8ATHhAR-_xfXLPtl-10" value="pan_num" style="ellipse;whiteSpace=wrap;html=1;" vertex="1" parent="1">
          <mxGeometry x="1170" y="1035" width="70" height="35" as="geometry" />
        </mxCell>
        <mxCell id="TTBG8ATHhAR-_xfXLPtl-11" value="rolebased_id" style="ellipse;whiteSpace=wrap;html=1;" vertex="1" parent="1">
          <mxGeometry x="944" y="990" width="80" height="35" as="geometry" />
        </mxCell>
        <mxCell id="TTBG8ATHhAR-_xfXLPtl-12" value="payment_id" style="ellipse;whiteSpace=wrap;html=1;" vertex="1" parent="1">
          <mxGeometry x="1130" y="990" width="80" height="35" as="geometry" />
        </mxCell>
        <mxCell id="TTBG8ATHhAR-_xfXLPtl-13" value="" style="endArrow=none;html=1;rounded=0;entryX=0.25;entryY=0;entryDx=0;entryDy=0;exitX=1;exitY=1;exitDx=0;exitDy=0;" edge="1" parent="1" source="TTBG8ATHhAR-_xfXLPtl-11" target="6a3Cd45cJa1MGzQEdIav-6">
          <mxGeometry width="50" height="50" relative="1" as="geometry">
            <mxPoint x="1091" y="990" as="sourcePoint" />
            <mxPoint x="1091" y="1060" as="targetPoint" />
          </mxGeometry>
        </mxCell>
        <mxCell id="TTBG8ATHhAR-_xfXLPtl-14" value="" style="endArrow=none;html=1;rounded=0;entryX=0;entryY=0;entryDx=0;entryDy=0;exitX=1;exitY=0.5;exitDx=0;exitDy=0;" edge="1" parent="1" source="TTBG8ATHhAR-_xfXLPtl-9" target="6a3Cd45cJa1MGzQEdIav-6">
          <mxGeometry width="50" height="50" relative="1" as="geometry">
            <mxPoint x="1023" y="1030" as="sourcePoint" />
            <mxPoint x="1069" y="1060" as="targetPoint" />
          </mxGeometry>
        </mxCell>
        <mxCell id="TTBG8ATHhAR-_xfXLPtl-15" value="" style="endArrow=none;html=1;rounded=0;entryX=0;entryY=0.5;entryDx=0;entryDy=0;exitX=1;exitY=0.5;exitDx=0;exitDy=0;" edge="1" parent="1" source="TTBG8ATHhAR-_xfXLPtl-6" target="6a3Cd45cJa1MGzQEdIav-6">
          <mxGeometry width="50" height="50" relative="1" as="geometry">
            <mxPoint x="1000" y="1063" as="sourcePoint" />
            <mxPoint x="1046" y="1060" as="targetPoint" />
          </mxGeometry>
        </mxCell>
        <mxCell id="TTBG8ATHhAR-_xfXLPtl-16" value="" style="endArrow=none;html=1;rounded=0;entryX=0;entryY=1;entryDx=0;entryDy=0;exitX=0.5;exitY=0;exitDx=0;exitDy=0;" edge="1" parent="1" source="TTBG8ATHhAR-_xfXLPtl-4" target="6a3Cd45cJa1MGzQEdIav-6">
          <mxGeometry width="50" height="50" relative="1" as="geometry">
            <mxPoint x="1000" y="1103" as="sourcePoint" />
            <mxPoint x="1046" y="1075" as="targetPoint" />
          </mxGeometry>
        </mxCell>
        <mxCell id="TTBG8ATHhAR-_xfXLPtl-17" value="" style="endArrow=none;html=1;rounded=0;entryX=0.75;entryY=0;entryDx=0;entryDy=0;exitX=0;exitY=0.5;exitDx=0;exitDy=0;" edge="1" parent="1" source="TTBG8ATHhAR-_xfXLPtl-12" target="6a3Cd45cJa1MGzQEdIav-6">
          <mxGeometry width="50" height="50" relative="1" as="geometry">
            <mxPoint x="1030" y="1030" as="sourcePoint" />
            <mxPoint x="1069" y="1060" as="targetPoint" />
          </mxGeometry>
        </mxCell>
        <mxCell id="TTBG8ATHhAR-_xfXLPtl-18" value="" style="endArrow=none;html=1;rounded=0;entryX=1;entryY=0;entryDx=0;entryDy=0;exitX=0;exitY=0.5;exitDx=0;exitDy=0;" edge="1" parent="1" source="TTBG8ATHhAR-_xfXLPtl-10" target="6a3Cd45cJa1MGzQEdIav-6">
          <mxGeometry width="50" height="50" relative="1" as="geometry">
            <mxPoint x="1140" y="1018" as="sourcePoint" />
            <mxPoint x="1114" y="1060" as="targetPoint" />
          </mxGeometry>
        </mxCell>
        <mxCell id="TTBG8ATHhAR-_xfXLPtl-19" value="" style="endArrow=none;html=1;rounded=0;entryX=1;entryY=0.5;entryDx=0;entryDy=0;exitX=0;exitY=0.5;exitDx=0;exitDy=0;" edge="1" parent="1" source="TTBG8ATHhAR-_xfXLPtl-8" target="6a3Cd45cJa1MGzQEdIav-6">
          <mxGeometry width="50" height="50" relative="1" as="geometry">
            <mxPoint x="1180" y="1063" as="sourcePoint" />
            <mxPoint x="1136" y="1060" as="targetPoint" />
          </mxGeometry>
        </mxCell>
        <mxCell id="TTBG8ATHhAR-_xfXLPtl-20" value="" style="endArrow=none;html=1;rounded=0;entryX=0.25;entryY=1;entryDx=0;entryDy=0;exitX=0.5;exitY=0;exitDx=0;exitDy=0;" edge="1" parent="1" source="TTBG8ATHhAR-_xfXLPtl-7" target="6a3Cd45cJa1MGzQEdIav-6">
          <mxGeometry width="50" height="50" relative="1" as="geometry">
            <mxPoint x="1021" y="1120" as="sourcePoint" />
            <mxPoint x="1046" y="1090" as="targetPoint" />
          </mxGeometry>
        </mxCell>
        <mxCell id="TTBG8ATHhAR-_xfXLPtl-21" value="" style="endArrow=none;html=1;rounded=0;entryX=0.75;entryY=1;entryDx=0;entryDy=0;exitX=0;exitY=0;exitDx=0;exitDy=0;" edge="1" parent="1" source="TTBG8ATHhAR-_xfXLPtl-5" target="6a3Cd45cJa1MGzQEdIav-6">
          <mxGeometry width="50" height="50" relative="1" as="geometry">
            <mxPoint x="1091" y="1140" as="sourcePoint" />
            <mxPoint x="1069" y="1090" as="targetPoint" />
          </mxGeometry>
        </mxCell>
        <mxCell id="TTBG8ATHhAR-_xfXLPtl-22" value="" style="endArrow=none;html=1;rounded=0;exitX=1;exitY=0.5;exitDx=0;exitDy=0;entryX=0;entryY=0.5;entryDx=0;entryDy=0;" edge="1" parent="1" source="TTBG8ATHhAR-_xfXLPtl-1" target="6a3Cd45cJa1MGzQEdIav-13">
          <mxGeometry width="50" height="50" relative="1" as="geometry">
            <mxPoint x="1091" y="990" as="sourcePoint" />
            <mxPoint x="1310" y="940" as="targetPoint" />
          </mxGeometry>
        </mxCell>
        <mxCell id="TTBG8ATHhAR-_xfXLPtl-23" value="user_name" style="ellipse;whiteSpace=wrap;html=1;" vertex="1" parent="1">
          <mxGeometry x="1230" y="885" width="70" height="35" as="geometry" />
        </mxCell>
        <mxCell id="TTBG8ATHhAR-_xfXLPtl-24" value="Record_id" style="ellipse;whiteSpace=wrap;html=1;" vertex="1" parent="1">
          <mxGeometry x="1265.5" y="955" width="75" height="35" as="geometry" />
        </mxCell>
        <mxCell id="TTBG8ATHhAR-_xfXLPtl-25" value="rolebased_id" style="ellipse;whiteSpace=wrap;html=1;" vertex="1" parent="1">
          <mxGeometry x="1310" y="852.5" width="80" height="35" as="geometry" />
        </mxCell>
        <mxCell id="TTBG8ATHhAR-_xfXLPtl-26" value="user_gen_id" style="ellipse;whiteSpace=wrap;html=1;" vertex="1" parent="1">
          <mxGeometry x="1335" y="985" width="70" height="35" as="geometry" />
        </mxCell>
        <mxCell id="TTBG8ATHhAR-_xfXLPtl-27" value="receiver_id" style="ellipse;whiteSpace=wrap;html=1;" vertex="1" parent="1">
          <mxGeometry x="1375" y="817.5" width="80" height="35" as="geometry" />
        </mxCell>
        <mxCell id="TTBG8ATHhAR-_xfXLPtl-28" value="receiver_name" style="ellipse;whiteSpace=wrap;html=1;" vertex="1" parent="1">
          <mxGeometry x="1387.5" y="1020" width="85" height="35" as="geometry" />
        </mxCell>
        <mxCell id="TTBG8ATHhAR-_xfXLPtl-29" value="initiated_at" style="ellipse;whiteSpace=wrap;html=1;" vertex="1" parent="1">
          <mxGeometry x="1460" y="840" width="80" height="35" as="geometry" />
        </mxCell>
        <mxCell id="TTBG8ATHhAR-_xfXLPtl-30" value="completed_at" style="ellipse;whiteSpace=wrap;html=1;" vertex="1" parent="1">
          <mxGeometry x="1472.5" y="1005" width="80" height="35" as="geometry" />
        </mxCell>
        <mxCell id="TTBG8ATHhAR-_xfXLPtl-31" value="time_req" style="ellipse;whiteSpace=wrap;html=1;" vertex="1" parent="1">
          <mxGeometry x="1512.5" y="875" width="80" height="35" as="geometry" />
        </mxCell>
        <mxCell id="TTBG8ATHhAR-_xfXLPtl-32" value="payment_mode" style="ellipse;whiteSpace=wrap;html=1;" vertex="1" parent="1">
          <mxGeometry x="1512.5" y="970" width="100" height="35" as="geometry" />
        </mxCell>
        <mxCell id="TTBG8ATHhAR-_xfXLPtl-33" value="time_req" style="ellipse;whiteSpace=wrap;html=1;" vertex="1" parent="1">
          <mxGeometry x="1552.5" y="910" width="80" height="35" as="geometry" />
        </mxCell>
        <mxCell id="TTBG8ATHhAR-_xfXLPtl-34" value="amount" style="ellipse;whiteSpace=wrap;html=1;" vertex="1" parent="1">
          <mxGeometry x="1600" y="945" width="80" height="35" as="geometry" />
        </mxCell>
        <mxCell id="TTBG8ATHhAR-_xfXLPtl-35" value="" style="endArrow=none;html=1;rounded=0;exitX=0;exitY=0.25;exitDx=0;exitDy=0;entryX=1;entryY=0.5;entryDx=0;entryDy=0;" edge="1" parent="1" source="6a3Cd45cJa1MGzQEdIav-13" target="TTBG8ATHhAR-_xfXLPtl-23">
          <mxGeometry width="50" height="50" relative="1" as="geometry">
            <mxPoint x="1390" y="933" as="sourcePoint" />
            <mxPoint x="1293" y="910" as="targetPoint" />
          </mxGeometry>
        </mxCell>
        <mxCell id="TTBG8ATHhAR-_xfXLPtl-36" value="" style="endArrow=none;html=1;rounded=0;exitX=0;exitY=0;exitDx=0;exitDy=0;entryX=0.5;entryY=1;entryDx=0;entryDy=0;" edge="1" parent="1" source="6a3Cd45cJa1MGzQEdIav-13" target="TTBG8ATHhAR-_xfXLPtl-25">
          <mxGeometry width="50" height="50" relative="1" as="geometry">
            <mxPoint x="1400" y="943" as="sourcePoint" />
            <mxPoint x="1310" y="913" as="targetPoint" />
          </mxGeometry>
        </mxCell>
        <mxCell id="TTBG8ATHhAR-_xfXLPtl-37" value="" style="endArrow=none;html=1;rounded=0;exitX=0.25;exitY=0;exitDx=0;exitDy=0;entryX=0.5;entryY=1;entryDx=0;entryDy=0;" edge="1" parent="1" source="6a3Cd45cJa1MGzQEdIav-13" target="TTBG8ATHhAR-_xfXLPtl-27">
          <mxGeometry width="50" height="50" relative="1" as="geometry">
            <mxPoint x="1400" y="935" as="sourcePoint" />
            <mxPoint x="1410" y="870" as="targetPoint" />
          </mxGeometry>
        </mxCell>
        <mxCell id="TTBG8ATHhAR-_xfXLPtl-38" value="" style="endArrow=none;html=1;rounded=0;exitX=0.5;exitY=0;exitDx=0;exitDy=0;entryX=0;entryY=1;entryDx=0;entryDy=0;" edge="1" parent="1" source="6a3Cd45cJa1MGzQEdIav-13" target="TTBG8ATHhAR-_xfXLPtl-29">
          <mxGeometry width="50" height="50" relative="1" as="geometry">
            <mxPoint x="1423" y="935" as="sourcePoint" />
            <mxPoint x="1425" y="863" as="targetPoint" />
          </mxGeometry>
        </mxCell>
        <mxCell id="TTBG8ATHhAR-_xfXLPtl-39" value="" style="endArrow=none;html=1;rounded=0;exitX=0.75;exitY=0;exitDx=0;exitDy=0;entryX=0.023;entryY=0.626;entryDx=0;entryDy=0;entryPerimeter=0;" edge="1" parent="1" source="6a3Cd45cJa1MGzQEdIav-13" target="TTBG8ATHhAR-_xfXLPtl-31">
          <mxGeometry width="50" height="50" relative="1" as="geometry">
            <mxPoint x="1445" y="935" as="sourcePoint" />
            <mxPoint x="1481" y="880" as="targetPoint" />
          </mxGeometry>
        </mxCell>
        <mxCell id="TTBG8ATHhAR-_xfXLPtl-40" value="" style="endArrow=none;html=1;rounded=0;exitX=1;exitY=0;exitDx=0;exitDy=0;entryX=0;entryY=0.5;entryDx=0;entryDy=0;" edge="1" parent="1" source="6a3Cd45cJa1MGzQEdIav-13" target="TTBG8ATHhAR-_xfXLPtl-33">
          <mxGeometry width="50" height="50" relative="1" as="geometry">
            <mxPoint x="1468" y="935" as="sourcePoint" />
            <mxPoint x="1524" y="907" as="targetPoint" />
          </mxGeometry>
        </mxCell>
        <mxCell id="TTBG8ATHhAR-_xfXLPtl-41" value="" style="endArrow=none;html=1;rounded=0;exitX=1;exitY=0.25;exitDx=0;exitDy=0;entryX=0;entryY=0.5;entryDx=0;entryDy=0;" edge="1" parent="1" source="6a3Cd45cJa1MGzQEdIav-13" target="TTBG8ATHhAR-_xfXLPtl-34">
          <mxGeometry width="50" height="50" relative="1" as="geometry">
            <mxPoint x="1490" y="935" as="sourcePoint" />
            <mxPoint x="1562" y="938" as="targetPoint" />
          </mxGeometry>
        </mxCell>
        <mxCell id="TTBG8ATHhAR-_xfXLPtl-42" value="" style="endArrow=none;html=1;rounded=0;exitX=1;exitY=0.5;exitDx=0;exitDy=0;entryX=0.5;entryY=0;entryDx=0;entryDy=0;" edge="1" parent="1" source="6a3Cd45cJa1MGzQEdIav-13" target="TTBG8ATHhAR-_xfXLPtl-32">
          <mxGeometry width="50" height="50" relative="1" as="geometry">
            <mxPoint x="1490" y="943" as="sourcePoint" />
            <mxPoint x="1610" y="973" as="targetPoint" />
          </mxGeometry>
        </mxCell>
        <mxCell id="TTBG8ATHhAR-_xfXLPtl-43" value="" style="endArrow=none;html=1;rounded=0;exitX=1;exitY=1;exitDx=0;exitDy=0;entryX=0;entryY=0;entryDx=0;entryDy=0;" edge="1" parent="1" source="6a3Cd45cJa1MGzQEdIav-13" target="TTBG8ATHhAR-_xfXLPtl-30">
          <mxGeometry width="50" height="50" relative="1" as="geometry">
            <mxPoint x="1490" y="950" as="sourcePoint" />
            <mxPoint x="1572" y="980" as="targetPoint" />
          </mxGeometry>
        </mxCell>
        <mxCell id="TTBG8ATHhAR-_xfXLPtl-44" value="" style="endArrow=none;html=1;rounded=0;exitX=0.75;exitY=1;exitDx=0;exitDy=0;entryX=0.5;entryY=0;entryDx=0;entryDy=0;" edge="1" parent="1" source="6a3Cd45cJa1MGzQEdIav-13" target="TTBG8ATHhAR-_xfXLPtl-28">
          <mxGeometry width="50" height="50" relative="1" as="geometry">
            <mxPoint x="1490" y="965" as="sourcePoint" />
            <mxPoint x="1494" y="1020" as="targetPoint" />
          </mxGeometry>
        </mxCell>
        <mxCell id="TTBG8ATHhAR-_xfXLPtl-45" value="" style="endArrow=none;html=1;rounded=0;exitX=0.25;exitY=1;exitDx=0;exitDy=0;entryX=1;entryY=0;entryDx=0;entryDy=0;" edge="1" parent="1" source="6a3Cd45cJa1MGzQEdIav-13" target="TTBG8ATHhAR-_xfXLPtl-26">
          <mxGeometry width="50" height="50" relative="1" as="geometry">
            <mxPoint x="1468" y="965" as="sourcePoint" />
            <mxPoint x="1440" y="1030" as="targetPoint" />
          </mxGeometry>
        </mxCell>
        <mxCell id="TTBG8ATHhAR-_xfXLPtl-46" value="" style="endArrow=none;html=1;rounded=0;exitX=0;exitY=1;exitDx=0;exitDy=0;entryX=1;entryY=0.5;entryDx=0;entryDy=0;" edge="1" parent="1" source="6a3Cd45cJa1MGzQEdIav-13" target="TTBG8ATHhAR-_xfXLPtl-24">
          <mxGeometry width="50" height="50" relative="1" as="geometry">
            <mxPoint x="1423" y="965" as="sourcePoint" />
            <mxPoint x="1405" y="1000" as="targetPoint" />
          </mxGeometry>
        </mxCell>
        <mxCell id="TTBG8ATHhAR-_xfXLPtl-47" value="agenda" style="ellipse;whiteSpace=wrap;html=1;" vertex="1" parent="1">
          <mxGeometry x="1482.5" y="460" width="70" height="30" as="geometry" />
        </mxCell>
        <mxCell id="TTBG8ATHhAR-_xfXLPtl-48" value="physician_id" style="ellipse;whiteSpace=wrap;html=1;" vertex="1" parent="1">
          <mxGeometry x="1432.5" y="545" width="80" height="30" as="geometry" />
        </mxCell>
        <mxCell id="TTBG8ATHhAR-_xfXLPtl-49" value="physician_name" style="ellipse;whiteSpace=wrap;html=1;" vertex="1" parent="1">
          <mxGeometry x="1470" y="505" width="100" height="30" as="geometry" />
        </mxCell>
        <mxCell id="TTBG8ATHhAR-_xfXLPtl-50" value="mode" style="ellipse;whiteSpace=wrap;html=1;" vertex="1" parent="1">
          <mxGeometry x="1290" y="520" width="80" height="30" as="geometry" />
        </mxCell>
        <mxCell id="TTBG8ATHhAR-_xfXLPtl-51" value="time_slat" style="ellipse;whiteSpace=wrap;html=1;" vertex="1" parent="1">
          <mxGeometry x="1350" y="545" width="80" height="30" as="geometry" />
        </mxCell>
        <mxCell id="TTBG8ATHhAR-_xfXLPtl-52" value="" style="endArrow=none;html=1;rounded=0;entryX=1;entryY=0;entryDx=0;entryDy=0;exitX=0;exitY=0.5;exitDx=0;exitDy=0;" edge="1" parent="1" source="TTBG8ATHhAR-_xfXLPtl-47" target="6a3Cd45cJa1MGzQEdIav-11">
          <mxGeometry width="50" height="50" relative="1" as="geometry">
            <mxPoint x="1495" y="450" as="sourcePoint" />
            <mxPoint x="1443" y="490" as="targetPoint" />
          </mxGeometry>
        </mxCell>
        <mxCell id="TTBG8ATHhAR-_xfXLPtl-53" value="" style="endArrow=none;html=1;rounded=0;entryX=1;entryY=0.5;entryDx=0;entryDy=0;exitX=0;exitY=0.5;exitDx=0;exitDy=0;" edge="1" parent="1" source="TTBG8ATHhAR-_xfXLPtl-49" target="6a3Cd45cJa1MGzQEdIav-11">
          <mxGeometry width="50" height="50" relative="1" as="geometry">
            <mxPoint x="1493" y="485" as="sourcePoint" />
            <mxPoint x="1465" y="490" as="targetPoint" />
          </mxGeometry>
        </mxCell>
        <mxCell id="TTBG8ATHhAR-_xfXLPtl-56" value="" style="endArrow=none;html=1;rounded=0;entryX=0.75;entryY=1;entryDx=0;entryDy=0;exitX=0.5;exitY=0;exitDx=0;exitDy=0;" edge="1" parent="1" source="TTBG8ATHhAR-_xfXLPtl-48" target="6a3Cd45cJa1MGzQEdIav-11">
          <mxGeometry width="50" height="50" relative="1" as="geometry">
            <mxPoint x="1480" y="530" as="sourcePoint" />
            <mxPoint x="1465" y="505" as="targetPoint" />
          </mxGeometry>
        </mxCell>
        <mxCell id="TTBG8ATHhAR-_xfXLPtl-57" value="" style="endArrow=none;html=1;rounded=0;entryX=0.5;entryY=1;entryDx=0;entryDy=0;exitX=0.5;exitY=0;exitDx=0;exitDy=0;" edge="1" parent="1" source="TTBG8ATHhAR-_xfXLPtl-51" target="6a3Cd45cJa1MGzQEdIav-11">
          <mxGeometry width="50" height="50" relative="1" as="geometry">
            <mxPoint x="1483" y="555" as="sourcePoint" />
            <mxPoint x="1443" y="520" as="targetPoint" />
          </mxGeometry>
        </mxCell>
        <mxCell id="TTBG8ATHhAR-_xfXLPtl-58" value="" style="endArrow=none;html=1;rounded=0;exitX=1;exitY=0;exitDx=0;exitDy=0;entryX=0;entryY=1;entryDx=0;entryDy=0;" edge="1" parent="1" source="TTBG8ATHhAR-_xfXLPtl-50" target="6a3Cd45cJa1MGzQEdIav-11">
          <mxGeometry width="50" height="50" relative="1" as="geometry">
            <mxPoint x="1400" y="555" as="sourcePoint" />
            <mxPoint x="1380" y="510" as="targetPoint" />
          </mxGeometry>
        </mxCell>
      </root>
    </mxGraphModel>
  </diagram>
</mxfile>
